<svg width="140" height="140" viewBox="0 0 140 140" fill="none" xmlns="http://www.w3.org/2000/svg">
<path fill-rule="evenodd" clip-rule="evenodd" d="M108.56 57.1298C109.673 57.1529 110.735 57.6521 111.399 58.5403C112.036 59.3937 112.13 60.511 111.853 61.5376C111.589 62.5135 110.931 63.3601 109.992 63.7471C109.109 64.1111 108.142 63.8435 107.286 63.4195C106.449 63.0046 105.753 62.376 105.451 61.4961C105.1 60.4742 104.941 59.3007 105.569 58.4195C106.23 57.4919 107.417 57.1061 108.56 57.1298Z" fill="#3365FF"/>
<path d="M62.4653 51.4515C61.5869 50.5141 60.3147 50 58.7094 50C56.8618 50 55.0747 50.756 53.4694 52.2378C52.6213 50.6653 50.8646 50 49.1684 50C47.351 50 45.776 50.7862 44.5947 51.8446L44.5341 51.8144V50.9979C44.5341 50.635 44.2313 50.3024 43.8375 50.3024H41.7173C41.3538 50.3024 41.0509 50.635 41.0509 50.9979V63.9709C41.0509 64.3338 41.3538 64.6362 41.7173 64.6362H43.8678C44.2615 64.6362 44.5644 64.3338 44.5644 63.9709V54.8384C45.4428 53.9312 46.8058 53.1147 48.1688 53.1147C48.8655 53.1147 49.5318 53.3264 50.0165 53.8707C50.4708 54.3546 50.6222 54.9896 50.6222 56.2597V63.9709C50.6222 64.3338 50.9251 64.6362 51.2886 64.6362H53.4391C53.8329 64.6362 54.1358 64.3338 54.1358 63.9709V55.6851C54.1358 55.3525 54.1358 55.0501 54.1055 54.8082C54.9839 53.901 56.3469 53.1147 57.7099 53.1147C58.4671 53.1147 59.0729 53.3567 59.5272 53.8707C59.9816 54.3546 60.1936 55.0199 60.1936 56.2597V63.9709C60.1936 64.3338 60.4965 64.6362 60.8599 64.6362H63.0408C63.4042 64.6362 63.7071 64.3338 63.7071 63.9709V55.6851C63.7071 53.6591 63.3437 52.4192 62.4653 51.4515Z" fill="#3365FF"/>
<path d="M77.672 50.3024H76.9754C76.4605 50.3024 76.0061 50.6048 75.7941 51.0886L74.2797 54.4453C73.583 56.0178 72.8258 57.6508 72.1594 59.2535H72.0988C71.4931 57.7415 70.9176 56.4109 70.1906 54.7477L68.5853 51.0886C68.3733 50.6048 67.8887 50.3024 67.3738 50.3024H66.4651C65.4958 50.3024 64.8598 51.3003 65.2838 52.1773L69.5849 61.4308L71.6142 63.3057C71.8262 63.5173 71.6748 63.8802 71.3719 63.8802H70.9782C70.3724 63.85 69.7969 64.1826 69.5243 64.7572L67.404 69.1722C66.98 70.0492 67.6161 71.0471 68.5853 71.0471H69.3425C69.8575 71.0471 70.3118 70.775 70.5238 70.2911L78.8836 52.1773C79.2774 51.3003 78.6413 50.3024 77.672 50.3024Z" fill="#3365FF"/>
<path d="M93.9339 51.8749C93.9037 50.9677 92.7527 50.5443 92.1166 51.2398L90.9959 52.4494C90.7839 52.6611 90.4204 52.5099 90.4204 52.2075L90.4507 51.6934C90.481 51.0282 90.0569 50.4536 89.4209 50.2722C88.7242 50.0907 87.9973 50 87.2401 50C82.9087 50 79.6678 53.1147 79.6678 57.6205C79.6678 62.0658 82.8179 64.9689 86.6646 64.9689C88.2093 64.9689 89.4209 64.5153 90.3295 63.9407L90.3901 63.9709V69.7468C90.3901 70.4726 90.9959 71.0471 91.7228 71.0471H92.6012C93.3282 71.0471 93.9339 70.4726 93.9339 69.7468V51.9051C93.9339 51.9051 93.9339 51.9051 93.9339 51.8749ZM90.3901 61.0376C89.542 61.6727 88.3911 62.0356 87.3309 62.0356C84.7564 62.0356 83.2116 59.9792 83.2116 57.4996C83.2116 54.9896 84.7866 52.9938 87.3915 52.9938C88.5122 52.9938 89.6026 53.3869 90.3901 53.78V61.0376Z" fill="#3365FF"/>
<path d="M104.204 50.3326C103.84 50.3326 103.507 50.3629 103.204 50.4234C102.417 50.5746 101.781 51.1189 101.478 51.8446L100.63 53.7195C100.478 54.0522 100.024 53.9615 100.024 53.5986V52.389V51.4213C100.024 50.9072 99.5999 50.4838 99.0547 50.4838H97.5099C96.995 50.4838 96.571 50.9072 96.571 51.4213V63.6988C96.571 64.2129 96.995 64.6362 97.5099 64.6362H99.085C99.6302 64.6362 100.054 64.2129 100.054 63.6988V56.5319C100.054 55.9573 100.266 55.413 100.66 55.0199C101.538 54.1127 102.659 53.6591 103.992 53.6591C104.052 53.6591 104.113 53.6591 104.174 53.6591C104.719 53.6591 105.143 53.2357 105.143 52.6914V51.2701C105.143 50.756 104.719 50.3326 104.204 50.3326Z" fill="#3365FF"/>
<path d="M31.5427 80.5116C29.392 80.0572 27.5744 80.0875 27.5744 78.7544C27.5744 77.7546 28.5741 77.3002 30.0887 77.3002C31.058 77.3002 32.2697 77.5123 33.4814 77.9061C34.4507 78.2394 35.4504 77.5123 35.4504 76.5125C35.4504 75.9065 35.0566 75.3309 34.481 75.1188C33.0876 74.6341 31.4821 74.3917 30.0887 74.3917C26.6354 74.3917 24 75.9974 24 78.9968C24 81.6326 25.8781 82.6021 28.6347 83.1778C30.8157 83.6625 32.6635 83.6019 32.6635 85.0259C32.6635 86.1165 31.6336 86.6013 30.0281 86.6013C28.9982 86.6013 27.6956 86.3892 26.4234 85.9045C25.454 85.5712 24.4241 86.268 24.4241 87.2981V87.3284C24.4241 87.9344 24.8179 88.51 25.3934 88.7221C26.8474 89.2371 28.5135 89.5098 29.9675 89.5098C33.3905 89.5098 36.2682 87.9949 36.2682 84.7229C36.2682 81.9659 34.2993 81.0873 31.5427 80.5116Z" fill="#1D1A5A"/>
<path d="M45.7527 86.3589C45.5709 86.3892 45.3589 86.4195 45.1771 86.4195C43.5717 86.4195 43.2688 85.0865 43.2688 83.4807V80.3299C43.2688 79.7845 43.0264 79.2695 42.6326 78.9362L41.7239 78.1788C41.5724 78.0576 41.6633 77.8152 41.8753 77.8152H43.2688H44.0866L45.9344 77.7849V77.8152H46.0253C46.722 77.8152 47.3279 77.2093 47.3279 76.4822V76.1186C47.3279 75.3915 46.722 74.7856 46.0253 74.7856H43.2688V71.9074C43.2688 71.1197 42.5417 70.4834 41.7239 70.6349L40.8151 70.7864C40.2093 70.8773 39.7246 71.4529 39.7246 72.0891V74.7856H38.5432C37.8162 74.7856 37.2407 75.3915 37.2407 76.1186V76.4822C37.2407 77.2093 37.8162 77.8152 38.5432 77.8152H39.7246V83.9655C39.7246 86.0863 40.179 87.2981 40.906 88.0858C41.8147 89.1159 43.1476 89.4795 44.4198 89.4795C45.0863 89.4795 45.783 89.3583 46.3585 89.2068C46.9341 89.025 47.3279 88.51 47.3279 87.9344V87.6617C47.3279 86.8134 46.5706 86.2074 45.7527 86.3589Z" fill="#1D1A5A"/>
<path d="M61.0608 74.7856H60.1823C59.4553 74.7856 58.8495 75.3915 58.8495 76.1186V83.2384C58.8495 84.1776 58.3951 85.0562 57.6075 85.5409C56.8502 86.056 56.002 86.3589 55.1236 86.3589C54.4571 86.3589 53.7604 86.1771 53.2152 85.5712C52.7911 85.0865 52.579 84.2987 52.579 83.0263V76.1186C52.579 75.3915 52.0035 74.7856 51.2765 74.7856H50.3677C49.6407 74.7856 49.0652 75.3915 49.0652 76.1186V83.6019C49.0652 85.6924 49.459 86.9952 50.3374 87.9646C51.2159 88.9341 52.579 89.4795 54.1542 89.4795H54.1845C55.5476 89.4795 56.8199 88.7221 57.5166 87.5102L58.2133 86.3286C58.3951 85.9954 58.8798 86.1468 58.8798 86.5104V87.9344C58.9403 88.6312 59.5159 89.1462 60.2126 89.1462H61.0608C61.7878 89.1462 62.3936 88.5706 62.3936 87.8435V76.1186C62.3936 75.3915 61.7878 74.7856 61.0608 74.7856Z" fill="#1D1A5A"/>
<path d="M77.3415 66.969H76.4328C75.736 66.969 75.1302 67.5446 75.1302 68.2718V75.1491L75.0999 75.1794C74.2517 74.8159 73.2521 74.5432 72.0101 74.5432C67.6178 74.5432 64.4674 77.8152 64.4674 82.2689C64.4674 86.6619 67.5572 89.4795 71.3134 89.4795H71.3437C72.4039 89.4795 73.4036 88.9038 73.9185 87.9949L74.5849 86.8437C74.7364 86.571 75.1302 86.6922 75.1302 86.9952V88.3282L75.1605 88.3585C75.1605 88.7827 75.524 89.1765 75.9784 89.1765H77.8565C78.2806 89.1765 78.6441 88.7827 78.6441 88.3585V68.2718C78.6441 67.5446 78.0685 66.969 77.3415 66.969ZM75.1302 84.8138C75.1302 85.2682 74.8879 85.7227 74.4638 85.9348C73.7368 86.268 72.9189 86.5104 72.0404 86.5104C69.4656 86.5104 68.0116 84.5714 68.0116 82.0871C68.0116 79.5422 69.5565 77.5426 72.2525 77.5426C72.9795 77.5426 73.7065 77.694 74.3426 77.9061C74.8273 78.0879 75.1302 78.5727 75.1302 79.0877V84.8138Z" fill="#1D1A5A"/>
<path d="M82.8883 72.2103C84.3423 72.3315 85.4934 71.0591 85.251 69.6351C85.0693 68.6656 84.2514 67.9385 83.2518 67.8476C81.828 67.7567 80.6467 69.0292 80.9193 70.4531C81.101 71.3923 81.9189 72.1497 82.8883 72.2103ZM83.5244 74.7856H82.6156C81.8886 74.7856 81.3131 75.3915 81.3131 76.1186V87.8435C81.3131 88.5706 81.8886 89.1765 82.6156 89.1765H83.5244C84.2514 89.1765 84.8572 88.5706 84.8572 87.8435V76.1186C84.8572 75.3915 84.2514 74.7856 83.5244 74.7856Z" fill="#1D1A5A"/>
<path d="M94.4967 74.4826C90.0135 74.4826 86.7117 77.7546 86.7117 81.9659C86.7117 86.2074 90.0135 89.4795 94.4967 89.4795C98.9496 89.4795 102.282 86.2074 102.282 81.9659C102.282 77.7546 98.9496 74.4826 94.4967 74.4826ZM94.4967 86.3892C92.043 86.3892 90.2255 84.4502 90.2255 81.9659C90.2255 79.4816 92.043 77.5729 94.4967 77.5729C96.9503 77.5729 98.7679 79.4816 98.7679 81.9659C98.7679 84.4502 96.9503 86.3892 94.4967 86.3892Z" fill="#1D1A5A"/>
</svg>
